<svg xmlns="http://www.w3.org/2000/svg" xmlns:xlink="http://www.w3.org/1999/xlink" width="500" zoomAndPan="magnify" viewBox="0 0 375 374.999991" height="500" preserveAspectRatio="xMidYMid meet" version="1.0"><defs><g/></defs><rect x="-37.5" width="450" fill="#ffffff" y="-37.499999" height="449.999989" fill-opacity="1"/><rect x="-37.5" width="450" fill="#ffffff" y="-37.499999" height="449.999989" fill-opacity="1"/><rect x="-37.5" width="450" fill="#000000" y="-37.499999" height="449.999989" fill-opacity="1"/><g fill="#ffffff" fill-opacity="1"><g transform="translate(-6.223178, 235.365129)"><g><path d="M 206.472656 -120.476562 L 178.585938 -130.695312 C 177.074219 -131.25 175.597656 -130.566406 175.28125 -129.703125 L 134.003906 -17.085938 L 95.996094 -160.230469 C 95.9375 -160.742188 94.71875 -161.433594 94.289062 -161.59375 L 65.539062 -172.128906 C 64.457031 -172.527344 62.980469 -171.839844 62.664062 -170.976562 L 15.210938 -41.5 L 48.28125 -29.378906 L 75.058594 -102.441406 L 112.851562 40.625 C 112.910156 41.136719 114.128906 41.828125 114.5625 41.988281 L 143.09375 52.445312 C 144.605469 53 145.867188 52.234375 146.183594 51.371094 L 208.136719 -117.660156 C 208.453125 -118.523438 207.984375 -119.921875 206.472656 -120.476562 Z M 206.472656 -120.476562 "/></g></g></g><g fill="#ffffff" fill-opacity="1"><g transform="translate(114.389194, 279.571108)"><g><path d="M 170.054688 15.007812 L 202.910156 27.046875 L 250.285156 -102.210938 C 250.601562 -103.074219 250.132812 -104.472656 248.621094 -105.027344 L 220.089844 -115.484375 C 219.222656 -115.800781 217.90625 -115.550781 217.234375 -115.058594 L 111.800781 -10.023438 L 96.191406 -159.425781 C 96.210938 -160.152344 95.152344 -161.277344 94.503906 -161.515625 L 65.539062 -172.128906 C 64.027344 -172.683594 62.980469 -171.839844 62.664062 -170.976562 L 0.714844 -1.945312 C 0.394531 -1.082031 0.648438 0.238281 2.160156 0.792969 L 30.695312 11.25 C 31.992188 11.726562 33.46875 11.039062 33.785156 10.175781 L 69.355469 -86.875 L 82.988281 21.097656 C 82.964844 21.828125 84.023438 22.949219 84.671875 23.1875 L 111.261719 32.933594 C 111.910156 33.167969 113.226562 32.917969 113.679688 32.347656 L 190.179688 -39.898438 Z M 170.054688 15.007812 "/></g></g></g></svg>